<svg width="16" height="16" fill="none" xmlns="http://www.w3.org/2000/svg"><g clip-path="url(#a)"><path d="M7 1.335c-.45.006-.72.032-.939.144-.25.127-.455.331-.582.582-.112.219-.138.489-.144.939M13 1.335c.45.006.72.032.939.144.25.127.454.331.582.582.112.219.138.489.144.939m0 6c-.006.45-.032.72-.144.939-.128.25-.332.454-.582.582-.219.112-.489.138-.94.144m1.668-5.332v1.334M9.333 1.333h1.334m-7.2 13.334h5.066c.747 0 1.12 0 1.406-.146.25-.128.454-.332.582-.582.146-.286.146-.659.146-1.406V7.467c0-.747 0-1.12-.146-1.406a1.334 1.334 0 0 0-.582-.582c-.286-.146-.659-.146-1.406-.146H3.467c-.747 0-1.12 0-1.406.146-.25.127-.455.331-.582.582-.146.285-.146.659-.146 1.406v5.066c0 .747 0 1.12.146 1.406.127.25.331.454.582.582.285.146.659.146 1.406.146Z" stroke="#fff" stroke-width="1.25" stroke-linecap="round" stroke-linejoin="round"/></g><defs><clipPath id="a"><path fill="#fff" d="M0 0h16v16H0z"/></clipPath></defs></svg>