<svg width="81" height="25" fill="none" xmlns="http://www.w3.org/2000/svg"><path d="M6.858 19.216c-1.236 0-2.304-.27-3.204-.81-.888-.552-1.578-1.314-2.07-2.286-.492-.984-.738-2.124-.738-3.42 0-1.284.246-2.412.738-3.384.492-.984 1.182-1.752 2.07-2.304.9-.552 1.968-.828 3.204-.828 1.44 0 2.61.348 3.51 1.044.912.684 1.494 1.644 1.746 2.88H10.44c-.192-.78-.588-1.404-1.188-1.872-.588-.48-1.386-.72-2.394-.72-.9 0-1.686.21-2.358.63-.672.408-1.194 1.002-1.566 1.782-.36.768-.54 1.692-.54 2.772 0 1.08.18 2.01.54 2.79.372.768.894 1.362 1.566 1.782.672.408 1.458.612 2.358.612 1.008 0 1.806-.228 2.394-.684.6-.468.996-1.086 1.188-1.854h1.674c-.252 1.212-.834 2.16-1.746 2.844-.9.684-2.07 1.026-3.51 1.026Zm10.31 0c-.745 0-1.363-.126-1.855-.378s-.858-.588-1.098-1.008a2.71 2.71 0 0 1-.36-1.368c0-.912.348-1.614 1.044-2.106.696-.492 1.644-.738 2.844-.738h2.412v-.108c0-.78-.204-1.368-.612-1.764-.408-.408-.954-.612-1.638-.612-.588 0-1.098.15-1.53.45-.42.288-.684.714-.792 1.278h-1.548c.06-.648.276-1.194.648-1.638.384-.444.858-.78 1.422-1.008a4.549 4.549 0 0 1 1.8-.36c1.248 0 2.184.336 2.808 1.008.636.66.954 1.542.954 2.646V19h-1.35l-.09-1.602a3.585 3.585 0 0 1-1.116 1.296c-.48.348-1.128.522-1.944.522Zm.233-1.278c.576 0 1.068-.15 1.476-.45.42-.3.738-.69.954-1.17.216-.48.324-.984.324-1.512v-.018H17.87c-.888 0-1.518.156-1.89.468-.36.3-.54.678-.54 1.134 0 .468.168.846.504 1.134.348.276.834.414 1.458.414Zm6.534 5.022V10.072h1.368l.144 1.476c.288-.432.696-.822 1.224-1.17.54-.348 1.224-.522 2.052-.522.888 0 1.662.204 2.322.612.66.408 1.17.966 1.53 1.674.372.708.558 1.512.558 2.412 0 .9-.186 1.704-.558 2.412a4.114 4.114 0 0 1-1.548 1.656c-.66.396-1.434.594-2.322.594-.732 0-1.386-.15-1.962-.45-.564-.3-.996-.72-1.296-1.26v5.454h-1.512Zm4.608-5.058c.6 0 1.128-.138 1.584-.414a3.043 3.043 0 0 0 1.08-1.188c.264-.504.396-1.092.396-1.764 0-.672-.132-1.26-.396-1.764a2.912 2.912 0 0 0-1.08-1.17c-.456-.288-.984-.432-1.584-.432-.6 0-1.128.144-1.584.432a2.912 2.912 0 0 0-1.08 1.17c-.264.504-.396 1.092-.396 1.764 0 .672.132 1.26.396 1.764s.624.9 1.08 1.188c.456.276.984.414 1.584.414ZM38.414 19c-.816 0-1.458-.198-1.925-.594-.468-.396-.703-1.11-.703-2.142V11.35H34.24v-1.278h1.547l.198-2.142h1.314v2.142h2.628v1.278h-2.628v4.914c0 .564.114.948.343 1.152.227.192.63.288 1.206.288h.935V19h-1.367Zm6.691.216c-1.055 0-1.895-.318-2.52-.954-.623-.648-.935-1.638-.935-2.97v-5.22h1.511v5.058c0 1.86.762 2.79 2.286 2.79.78 0 1.422-.276 1.926-.828.517-.564.775-1.362.775-2.394v-4.626h1.511V19h-1.367l-.108-1.602a3.093 3.093 0 0 1-1.242 1.332c-.54.324-1.153.486-1.837.486ZM52.148 19v-8.928h1.368l.126 1.71a3.237 3.237 0 0 1 1.26-1.404c.564-.348 1.26-.522 2.088-.522v1.584h-.414c-.528 0-1.014.096-1.458.288-.444.18-.798.492-1.062.936-.264.444-.396 1.056-.396 1.836V19h-1.512Zm10.22.216c-.853 0-1.609-.192-2.269-.576a4.284 4.284 0 0 1-1.566-1.638c-.372-.696-.558-1.518-.558-2.466 0-.936.186-1.752.558-2.448a4 4 0 0 1 1.548-1.638c.672-.396 1.446-.594 2.322-.594.864 0 1.608.198 2.232.594a3.88 3.88 0 0 1 1.458 1.53 4.327 4.327 0 0 1 .486 2.448v.45h-7.11c.036.684.192 1.254.468 1.71.288.444.642.78 1.062 1.008a2.89 2.89 0 0 0 1.368.342c.624 0 1.146-.144 1.566-.432.42-.288.726-.678.918-1.17h1.494a4.057 4.057 0 0 1-1.386 2.07c-.672.54-1.536.81-2.592.81Zm0-8.082a3.03 3.03 0 0 0-1.927.666c-.552.432-.87 1.068-.954 1.908h5.616c-.036-.804-.312-1.434-.828-1.89-.516-.456-1.152-.684-1.908-.684Z" fill="#D0CAD0" style="mix-blend-mode:plus-lighter"/><path d="M72.628 8.494V3.253h2.386c.308 0 .587.066.838.199.251.128.447.312.59.554.146.236.22.518.22.845 0 .331-.074.622-.22.873-.147.247-.348.44-.604.583a1.746 1.746 0 0 1-.852.206H73.01v-.59h1.847c.326 0 .587-.094.781-.284.199-.19.298-.452.298-.788 0-.341-.1-.594-.298-.76-.194-.166-.452-.249-.774-.249h-1.548v4.652h-.69Zm2.954-2.393 1.293 2.393h-.767l-1.272-2.393h.746Zm-1.086 5.518a5.56 5.56 0 0 1-2.21-.44 5.712 5.712 0 0 1-3.032-3.033 5.558 5.558 0 0 1-.44-2.209c0-.785.147-1.522.44-2.208A5.71 5.71 0 0 1 72.287.696a5.558 5.558 0 0 1 2.209-.44c.785 0 1.522.146 2.208.44a5.712 5.712 0 0 1 3.033 3.033c.294.686.44 1.423.44 2.208 0 .786-.146 1.523-.44 2.21a5.71 5.71 0 0 1-3.033 3.032 5.56 5.56 0 0 1-2.208.44Zm0-.76c.909 0 1.735-.22 2.478-.66a4.967 4.967 0 0 0 1.783-1.776 4.81 4.81 0 0 0 .66-2.486c0-.909-.222-1.735-.667-2.478a4.985 4.985 0 0 0-1.776-1.776 4.733 4.733 0 0 0-2.478-.667c-.91 0-1.738.22-2.486.66a4.966 4.966 0 0 0-1.776 1.783c-.44.743-.66 1.57-.66 2.478 0 .905.22 1.731.66 2.48a4.967 4.967 0 0 0 1.776 1.782 4.81 4.81 0 0 0 2.486.66Z" fill="#FEEA36"/></svg>